<?xml version="1.0" standalone="no"?>
<!DOCTYPE svg PUBLIC "-//W3C//DTD SVG 20010904//EN"
 "http://www.w3.org/TR/2001/REC-SVG-20010904/DTD/svg10.dtd">
<svg version="1.0" xmlns="http://www.w3.org/2000/svg"
 width="1080.000000pt" height="719.000000pt" viewBox="0 0 1080.000000 719.000000"
 preserveAspectRatio="xMidYMid meet">
<metadata>
Created by potrace 1.16, written by Peter Selinger 2001-2019
</metadata>
<g transform="translate(0.000000,719.000000) scale(0.100000,-0.100000)"
fill="#000000" stroke="none">
<path d="M0 6048 l0 -1143 89 -2 c94 -1 149 -21 153 -53 4 -49 -6 -73 -49
-113 -105 -97 -110 -104 -117 -178 -4 -38 -5 -73 -2 -78 3 -5 -1 -11 -9 -15
-8 -3 -15 -13 -15 -22 0 -13 -3 -14 -15 -4 -8 7 -15 18 -15 26 0 7 -5 16 -10
19 -7 4 -10 -130 -10 -404 l1 -411 22 0 c16 0 23 -6 24 -20 1 -14 -4 -20 -20
-20 -18 0 -19 2 -7 10 13 8 13 10 -2 10 -17 0 -18 -46 -18 -768 l0 -769 37
-11 c81 -25 110 -29 153 -23 40 6 75 -2 90 -20 3 -4 16 -21 30 -40 14 -18 40
-46 58 -62 17 -17 32 -34 32 -39 0 -4 -51 -8 -114 -8 l-114 0 -35 40 c-19 22
-39 40 -43 40 -5 1 -22 19 -39 40 -48 63 -55 55 -55 -70 l0 -110 81 0 81 0
207 -210 c114 -116 205 -213 202 -216 -2 -2 -39 -2 -80 1 -42 3 -150 10 -241
15 -91 6 -184 13 -208 17 -43 5 -44 5 -40 -22 2 -21 15 -33 58 -57 30 -16 60
-33 65 -38 6 -4 55 -31 110 -60 98 -51 147 -82 172 -106 7 -7 18 -14 25 -17 7
-2 10 -8 6 -12 -9 -9 -214 16 -406 50 l-33 6 3 -103 3 -102 50 -26 c28 -14 54
-31 58 -38 4 -6 14 -12 22 -12 8 0 17 -5 21 -11 5 -9 -14 -10 -75 -5 l-81 7 0
-59 0 -59 50 -7 c92 -12 151 -52 140 -95 -4 -20 -17 -27 -70 -42 -36 -10 -77
-18 -92 -19 l-28 0 0 -315 0 -315 350 0 c193 0 350 2 350 4 0 4 -10 9 -174 95
-84 44 -90 48 -102 90 -11 39 -11 48 6 82 18 34 24 38 72 43 171 21 201 19
342 -20 65 -18 100 -4 104 44 5 45 -33 124 -69 144 -62 36 -18 57 72 34 33 -9
72 -16 87 -16 14 0 33 -6 41 -14 9 -8 48 -25 86 -39 82 -30 127 -52 119 -59
-3 -3 20 -18 51 -33 72 -36 77 -46 18 -40 -26 3 -72 8 -100 11 l-53 6 0 -51
c0 -28 4 -51 9 -51 12 0 71 -59 71 -71 0 -5 5 -9 10 -9 14 0 31 -46 24 -65 -4
-8 -12 -15 -20 -15 -8 0 -14 -5 -14 -10 0 -6 -12 -22 -27 -35 l-28 -24 545 0
545 0 -48 24 c-69 34 -76 41 -79 87 -3 40 -5 42 -78 80 -41 21 -82 46 -92 55
-16 14 -15 17 10 38 29 24 61 29 259 43 89 6 126 15 112 25 -71 53 -237 119
-404 158 -66 16 -85 26 -79 44 9 22 56 33 219 50 295 32 301 32 475 -15 85
-23 188 -50 229 -61 102 -27 148 -54 139 -81 -5 -14 -13 -16 -190 -33 -181
-18 -190 -20 -222 -56 -28 -31 -27 -49 2 -49 9 0 71 -14 137 -30 66 -16 134
-30 151 -30 17 0 44 -6 60 -14 16 -8 42 -20 57 -25 35 -14 31 -31 -11 -51 -39
-18 -40 -37 -5 -67 15 -13 20 -23 12 -23 -10 0 -9 -4 4 -17 16 -16 15 -18 -15
-35 -32 -17 -16 -17 420 -18 303 0 451 3 447 10 -9 14 -112 80 -157 102 -21 9
-38 22 -38 28 0 5 -5 10 -10 10 -6 0 -31 10 -55 21 -42 20 -45 23 -30 39 14
16 45 28 125 47 l34 9 -39 23 c-22 13 -44 24 -50 25 -5 1 -19 7 -30 13 -19 11
-72 26 -125 37 -48 10 -205 58 -213 65 -14 14 5 40 36 50 18 6 77 15 132 20
55 6 145 19 199 30 l99 20 117 -29 c65 -16 144 -34 176 -39 33 -6 70 -14 84
-17 14 -3 59 -10 100 -16 74 -10 131 -41 112 -60 -10 -10 -91 -33 -187 -53
-139 -29 -185 -49 -185 -80 0 -13 84 -45 117 -45 10 0 61 -9 113 -20 52 -12
114 -25 136 -30 88 -19 154 -90 85 -90 -16 0 -42 -7 -57 -15 -16 -8 -38 -15
-49 -15 -11 0 -31 -9 -45 -20 -25 -19 -23 -20 497 -20 495 0 523 1 532 18 8
14 4 25 -15 48 l-26 29 -230 10 c-214 9 -232 11 -238 29 -9 27 -1 62 19 79 9
8 50 27 91 42 100 37 160 60 188 71 l23 10 -26 24 c-25 24 -35 26 -263 40
-228 14 -237 16 -240 36 -2 16 6 26 35 39 42 20 43 20 231 67 72 18 132 36
132 40 0 12 -67 25 -260 48 -102 12 -223 27 -270 34 l-85 13 40 11 c22 6 73
16 113 22 55 9 103 27 190 71 64 32 122 59 130 59 7 0 75 -20 150 -44 157 -51
204 -65 357 -104 l110 -29 -50 -22 c-73 -32 -119 -40 -225 -41 -103 0 -170 -8
-170 -20 0 -4 30 -13 67 -19 38 -6 88 -16 113 -22 25 -6 105 -23 177 -39 80
-17 148 -37 170 -52 l38 -23 -100 -6 c-118 -7 -134 -12 -157 -44 l-18 -24 73
-15 c39 -8 122 -23 182 -32 61 -9 117 -23 126 -30 8 -8 20 -14 26 -14 12 0 47
-49 40 -56 -3 -3 -28 -11 -57 -19 -74 -19 -120 -53 -120 -87 0 -25 4 -28 32
-28 38 0 242 -27 315 -41 28 -6 53 -14 55 -20 2 -6 129 -8 331 -7 l328 3 -28
30 c-40 44 -101 69 -238 100 -166 37 -158 34 -144 51 21 25 79 44 134 44 50 0
52 1 48 24 -6 32 -61 52 -206 76 -61 11 -148 27 -192 36 -44 9 -96 19 -115 23
l-35 7 30 16 c17 8 68 18 115 21 47 4 112 14 145 24 33 9 72 16 86 16 30 0
196 -37 289 -64 36 -10 115 -30 175 -45 61 -14 119 -31 130 -37 19 -10 19 -10
0 -17 -11 -4 -58 -11 -105 -15 -89 -7 -144 -26 -154 -52 -4 -9 -5 -18 -2 -20
2 -3 69 -17 148 -33 78 -15 163 -35 188 -43 25 -8 60 -18 79 -22 18 -4 47 -20
64 -36 l30 -29 -46 -20 c-25 -11 -49 -25 -52 -30 -4 -7 202 -9 577 -8 508 1
552 2 343 9 -247 9 -325 15 -325 27 0 16 70 41 148 51 45 7 86 10 90 7 7 -4
99 -22 262 -51 88 -15 112 -24 104 -36 -3 -5 343 -9 834 -9 l840 0 5 32 c2 19
0 36 -7 40 -7 5 -6 8 4 8 13 0 13 1 0 10 -10 7 -12 12 -4 18 20 13 11 40 -15
47 -29 7 -18 17 31 29 24 5 28 3 28 -14 0 -13 7 -20 19 -20 14 0 18 5 14 20
-4 14 1 21 21 26 14 3 26 12 26 20 0 8 5 14 11 14 6 0 9 -7 5 -15 -7 -20 18
-20 38 0 19 19 26 19 26 0 0 -16 42 -30 65 -21 11 4 15 -2 15 -23 0 -28 1 -29
71 -35 46 -5 75 -4 84 4 19 15 300 17 345 2 19 -7 68 -21 108 -33 39 -12 75
-25 78 -30 3 -5 12 -9 20 -9 12 0 14 62 14 426 l0 427 -32 -7 c-18 -4 -51 -9
-73 -12 -22 -3 -58 -10 -80 -16 -68 -19 -79 -19 -115 -4 -49 21 -146 39 -203
37 -31 -1 -53 3 -63 13 -11 12 -35 16 -85 16 -50 0 -69 4 -69 13 0 10 -13 11
-58 4 -217 -32 -555 -30 -632 5 -82 37 -100 55 -100 99 0 21 5 39 11 39 12 0
1 43 -12 48 -5 2 -9 10 -9 18 0 8 -4 14 -8 14 -5 0 -18 18 -31 40 -21 38 -24
40 -72 40 -27 0 -49 4 -49 10 0 5 -22 25 -49 42 -38 26 -52 42 -61 73 -25 85
-48 123 -90 147 -22 13 -40 28 -40 35 0 6 -5 13 -11 15 -14 5 -14 78 1 122 10
32 20 41 35 34 2 -2 16 13 30 32 21 29 23 36 11 45 -12 9 -11 14 4 33 10 12
22 22 27 22 9 0 63 -58 63 -67 0 -12 36 -32 55 -33 31 0 62 26 68 57 4 18 -8
69 -35 148 -46 136 -60 168 -94 204 -13 14 -31 49 -39 78 -21 71 -58 143 -90
173 -15 14 -33 39 -41 55 -8 17 -27 48 -44 70 -16 22 -29 47 -30 57 0 9 -18
31 -40 48 -22 17 -38 35 -35 39 2 5 -13 28 -35 51 -27 29 -40 53 -40 71 0 15
-10 39 -22 54 -48 58 -145 151 -181 175 -20 14 -40 33 -43 42 -3 9 -13 20 -24
23 -10 3 -40 26 -66 51 -42 38 -48 49 -46 78 3 24 -1 35 -14 40 -22 8 -31 -1
-16 -16 17 -17 15 -28 -7 -28 -23 0 -47 25 -31 35 8 5 7 55 -2 59 -2 0 -13 7
-25 14 -13 6 -29 12 -37 12 -8 0 -19 6 -23 14 -12 19 -48 36 -80 36 -20 0 -24
3 -14 9 19 12 5 31 -23 31 -13 0 -31 9 -41 20 -23 25 -32 25 -40 0 -8 -26 -36
-26 -65 0 -13 12 -43 29 -66 39 -48 22 -84 85 -92 160 -3 40 1 55 27 96 17 27
31 55 31 62 0 17 55 44 74 37 9 -3 16 -14 16 -24 0 -11 4 -21 8 -24 14 -9 29
8 47 57 10 27 29 56 42 64 13 8 23 22 23 29 0 25 66 17 94 -11 14 -14 34 -25
45 -25 21 0 83 -32 116 -61 11 -9 31 -20 45 -24 14 -4 46 -30 72 -57 26 -28
49 -44 53 -38 3 5 15 10 26 10 16 0 19 -7 19 -40 0 -22 -4 -40 -10 -40 -5 0
-10 5 -10 12 0 9 -3 9 -12 0 -10 -10 -10 -15 0 -21 8 -5 13 -11 13 -15 -3 -19
3 -25 41 -42 23 -10 52 -17 64 -16 15 2 24 -3 29 -17 3 -11 9 -20 13 -20 30 5
73 -4 86 -16 8 -8 23 -15 33 -15 11 0 28 -7 39 -15 10 -8 26 -15 35 -15 9 0
19 -7 23 -15 3 -8 13 -15 23 -15 18 0 73 -50 73 -66 0 -4 10 -19 23 -32 15
-17 18 -26 9 -29 -6 -3 -12 -17 -11 -31 0 -26 1 -26 9 -4 5 12 12 22 16 22 3
0 4 -7 0 -15 -3 -9 3 -19 16 -26 15 -8 17 -13 8 -19 -9 -6 -7 -10 9 -15 11 -3
21 -10 21 -14 0 -4 6 -16 14 -26 11 -15 17 -17 27 -8 11 9 20 6 39 -9 17 -14
21 -22 12 -25 -19 -7 17 -32 46 -33 16 0 21 -4 16 -12 -12 -20 -14 -67 -3 -73
5 -4 16 -1 24 5 12 10 18 10 30 0 8 -6 19 -9 24 -5 13 7 53 -13 47 -23 -2 -4
-28 -7 -57 -5 -48 2 -51 0 -36 -14 17 -18 82 -43 110 -43 16 0 57 -33 57 -46
0 -3 -7 -4 -15 0 -18 7 -19 5 -1 -30 8 -15 13 -31 10 -35 -2 -4 9 -20 26 -36
16 -15 30 -35 30 -44 0 -24 23 -47 49 -51 19 -2 26 2 31 21 6 24 6 24 43 -14
20 -21 37 -45 37 -53 0 -9 6 -23 14 -31 18 -21 66 -113 66 -127 0 -5 14 -23
30 -39 17 -16 30 -33 30 -37 0 -5 9 -21 19 -36 21 -29 38 -112 24 -112 -5 0
-17 18 -27 40 -10 22 -22 40 -27 40 -5 0 -9 6 -9 14 0 7 -11 25 -25 40 -21 23
-28 26 -40 16 -21 -17 -19 -41 5 -47 13 -4 24 -22 35 -62 9 -31 18 -63 21 -72
2 -8 12 -24 22 -35 10 -10 28 -45 41 -77 13 -32 32 -64 43 -70 10 -7 18 -17
18 -22 0 -6 27 -27 59 -45 33 -19 58 -37 56 -39 -3 -2 2 -13 10 -25 8 -11 15
-28 15 -38 0 -21 16 -24 24 -5 3 6 4 3 1 -8 -3 -14 12 -37 51 -80 31 -33 62
-74 70 -92 7 -17 18 -34 23 -37 5 -3 12 -27 15 -53 19 -133 39 -157 197 -238
162 -83 168 -84 476 -108 l43 -4 0 419 0 418 -25 36 c-14 20 -25 47 -25 60 0
32 21 74 37 74 9 0 13 16 13 56 0 46 -3 55 -15 50 -18 -7 -18 2 0 34 12 21 14
171 15 983 l0 957 -27 -17 c-16 -10 -32 -23 -36 -30 -4 -7 -17 -13 -27 -13
-11 0 -20 -4 -20 -10 0 -5 -4 -10 -9 -10 -6 0 -25 -14 -43 -30 -18 -17 -37
-29 -42 -27 -17 6 -42 60 -50 105 -10 67 2 103 48 143 l41 37 50 -13 c28 -7
65 -15 83 -18 l32 -6 0 1344 0 1345 -3666 0 -3667 0 7 -77 c4 -43 14 -123 23
-178 9 -55 17 -111 18 -125 1 -14 3 -28 4 -31 0 -4 17 -10 36 -13 26 -5 35
-12 35 -27 0 -14 9 -21 30 -26 40 -7 44 -16 21 -44 -19 -24 -20 -24 -49 -6
-31 18 -55 15 -81 -11 -11 -10 -27 -12 -60 -8 -25 4 -57 7 -70 6 -30 0 -71 25
-71 44 0 8 -11 17 -25 20 -29 7 -32 18 -10 36 12 10 14 30 10 99 -6 89 -20
198 -37 289 l-9 52 -1620 0 -1619 0 0 -1142z m3095 792 c4 -6 24 -19 46 -30
21 -11 39 -25 39 -30 0 -6 -20 -23 -45 -39 -40 -25 -57 -29 -159 -35 -92 -6
-122 -4 -148 8 -18 8 -42 16 -52 18 -27 4 -40 55 -18 67 29 15 131 24 145 13
28 -23 62 -20 102 9 39 29 79 38 90 19z m729 -16 c35 -14 13 -49 -49 -80 -29
-14 -28 -14 35 -10 36 2 77 7 92 11 15 4 39 4 53 1 22 -6 23 -9 13 -26 -7 -11
-18 -20 -24 -20 -7 0 -19 -11 -28 -24 -22 -34 -47 -39 -126 -26 -68 11 -89 24
-94 55 -1 9 -10 25 -20 36 -29 34 -14 49 49 49 39 0 54 3 49 11 -3 6 0 15 7
20 17 10 23 11 43 3z m366 -21 c27 -16 31 -16 69 2 32 14 56 17 113 13 42 -3
74 -11 76 -17 2 -7 14 -21 26 -32 23 -23 74 -20 88 5 14 25 116 41 111 18 -5
-22 40 -33 145 -37 120 -4 142 -9 135 -33 -8 -33 22 -57 69 -55 23 1 78 -7
122 -18 94 -23 106 -23 141 -5 l26 14 -34 26 c-19 14 -42 26 -53 26 -35 1 8
18 51 21 40 2 156 -19 165 -31 3 -3 31 -17 63 -29 31 -13 60 -27 63 -32 3 -5
13 -9 22 -9 33 0 137 -49 157 -74 18 -22 29 -26 75 -26 69 0 100 -8 100 -26 0
-8 5 -14 11 -14 6 0 9 -7 6 -15 -7 -18 37 -54 75 -62 16 -3 31 -10 34 -14 3
-5 15 -9 28 -9 12 0 27 -5 32 -10 6 -6 50 -31 98 -56 49 -25 108 -64 131 -87
40 -40 98 -85 153 -117 13 -9 36 -36 50 -61 17 -33 34 -49 59 -58 27 -10 37
-10 43 -1 4 7 42 14 88 17 65 5 86 3 106 -11 14 -9 31 -16 39 -16 21 0 82 -70
107 -123 19 -41 22 -60 18 -118 -3 -38 -12 -77 -19 -87 -29 -36 -42 -66 -30
-70 6 -2 11 -20 11 -41 0 -33 8 -45 64 -99 35 -33 67 -70 71 -82 3 -11 10 -20
15 -20 4 0 9 -69 11 -153 4 -148 5 -155 32 -195 16 -25 38 -44 54 -48 33 -9
63 -45 81 -98 16 -44 13 -69 -18 -175 -12 -45 -18 -85 -15 -103 6 -24 3 -28
-15 -28 -11 0 -20 6 -19 13 3 18 -12 67 -21 67 -5 0 -19 17 -31 38 -12 20 -38
51 -56 69 -32 30 -34 36 -38 112 -5 111 -8 118 -58 127 -23 4 -45 7 -49 6 -4
-1 -16 10 -26 23 -11 14 -29 25 -41 25 -12 0 -21 5 -21 11 0 6 -8 8 -19 4 -13
-4 -26 4 -45 25 -32 38 -53 36 -78 -9 l-19 -34 31 -32 c27 -28 30 -36 20 -54
-6 -12 -29 -33 -52 -47 -23 -15 -52 -39 -65 -55 -17 -19 -35 -29 -60 -31 -31
-2 -44 -11 -78 -55 -29 -38 -53 -56 -89 -70 -27 -10 -51 -26 -54 -35 -4 -17
-30 -31 -48 -27 -20 5 -93 -14 -139 -36 -67 -31 -119 -47 -136 -40 -8 3 -56
-8 -107 -25 -51 -16 -101 -30 -112 -30 -10 0 -20 -4 -22 -10 -1 -5 -34 -12
-72 -14 -54 -4 -73 -10 -89 -27 -18 -19 -26 -20 -71 -13 -71 11 -130 8 -165
-10 -19 -10 -70 -18 -143 -21 -62 -3 -126 -8 -143 -11 -98 -16 -333 -37 -410
-36 -107 1 -137 1 -167 0 -28 -1 -93 8 -129 17 -20 5 -37 0 -68 -20 -29 -19
-48 -25 -65 -21 -14 3 -27 2 -30 -3 -4 -5 -40 -12 -81 -16 -64 -6 -79 -5 -95
10 -16 14 -29 16 -82 10 -35 -4 -88 -9 -118 -11 -78 -3 -228 -22 -239 -29 -10
-6 -274 -7 -346 -1 -22 2 -65 11 -95 21 -57 18 -106 20 -325 15 -112 -3 -140
0 -202 19 -40 12 -75 26 -78 31 -3 4 -59 7 -125 5 -66 -2 -134 0 -151 5 -22 7
-37 6 -50 -4 -16 -11 -36 -11 -115 0 -53 8 -102 18 -108 23 -6 5 -38 12 -71
16 -124 14 -185 44 -185 91 0 12 -6 24 -13 27 -14 5 -16 34 -4 54 4 6 -2 13
-15 16 l-22 6 24 26 c21 22 22 28 10 35 -23 15 -29 12 -36 -15 -8 -34 -21 -32
-29 5 -7 31 -25 42 -25 15 0 -22 -44 -19 -65 5 -10 11 -28 20 -39 20 -17 0
-18 2 -6 10 13 8 12 12 -5 27 -11 10 -31 19 -44 21 -13 1 -31 11 -39 23 -7 11
-23 29 -35 40 -18 16 -19 23 -10 38 10 16 9 20 -13 25 -24 6 -46 41 -49 78 -1
10 -11 30 -21 45 -46 69 -56 97 -51 139 4 36 0 47 -19 65 -13 12 -35 39 -51
61 -16 24 -42 46 -65 55 -20 8 -40 23 -43 34 -5 14 -16 19 -44 19 -25 0 -44 7
-56 20 -10 11 -24 20 -31 20 -7 0 -22 9 -33 21 -15 16 -26 19 -50 14 -17 -4
-31 -12 -31 -18 0 -8 -3 -7 -9 2 -12 19 10 71 30 71 9 0 19 9 22 21 3 11 15
23 27 26 17 5 20 11 16 37 -3 17 -3 24 1 16 7 -18 23 -30 42 -30 9 0 11 6 5
18 -26 58 4 122 56 122 46 0 90 -21 105 -51 23 -43 19 -78 -9 -91 -51 -23 -33
-68 19 -48 30 11 45 6 45 -16 0 -8 6 -24 12 -35 8 -14 9 -23 3 -25 -35 -14
-40 -23 -23 -40 19 -19 38 -11 38 17 0 10 4 19 8 19 4 0 15 13 25 29 17 29 17
30 -5 34 -21 4 -21 4 3 6 14 0 34 -6 45 -14 24 -18 40 -19 47 -1 4 10 1 13 -7
10 -7 -3 -18 7 -24 22 -8 17 -18 24 -27 20 -10 -4 -15 1 -15 14 0 11 -5 20
-10 20 -7 0 -7 6 0 20 14 26 29 25 39 -2 7 -20 16 -23 69 -24 52 -1 59 1 47
12 -7 8 -26 14 -42 14 -59 0 -106 78 -67 111 14 11 18 10 30 -6 13 -18 14 -17
14 7 0 18 7 29 21 33 11 4 23 4 26 1 4 -3 1 -6 -6 -6 -8 0 -9 -6 -3 -17 5 -10
12 -35 16 -56 8 -43 51 -81 66 -57 5 8 8 0 7 -22 -1 -29 -4 -34 -19 -30 -25 6
-22 -9 6 -35 29 -28 36 -29 36 -2 0 12 -4 17 -11 13 -14 -8 -5 22 25 88 17 38
31 52 74 74 29 15 57 34 61 43 5 9 13 12 17 8 4 -4 16 0 26 10 10 9 21 13 26
9 4 -4 -2 -14 -12 -22 -11 -8 -14 -14 -8 -14 20 0 13 -21 -13 -42 -14 -11 -25
-25 -25 -33 0 -7 -6 -16 -12 -18 -8 -3 -5 -6 5 -6 21 -1 77 29 77 41 0 4 14
15 32 24 28 15 32 15 40 0 11 -20 28 -21 28 -1 0 8 7 15 16 15 10 0 14 -6 11
-15 -8 -19 13 -31 24 -14 6 11 9 10 15 -4 3 -9 17 -17 30 -17 21 0 24 4 24 41
0 24 4 38 10 34 6 -3 13 1 16 9 3 9 12 16 19 16 7 0 18 7 25 15 12 14 15 14
31 -1 23 -21 25 -7 2 18 -15 17 -15 18 5 18 14 0 22 -7 23 -17 1 -16 2 -16 6
-1 2 9 12 19 21 21 14 4 13 6 -6 12 -13 4 -22 14 -20 23 5 23 28 27 28 4 0
-22 18 -32 56 -32 15 0 24 6 24 15 0 8 7 15 15 15 23 0 66 31 59 42 -9 15 16
38 42 38 13 0 24 5 24 11 0 6 7 9 15 5 8 -3 15 0 16 7 0 9 2 9 6 0 7 -18 23
-16 23 2 0 8 6 15 14 15 8 0 22 3 31 7 14 5 16 2 10 -15 -4 -16 -2 -22 8 -22
9 0 17 5 19 11 2 6 20 11 41 11 20 0 40 4 43 9 10 17 22 9 17 -11 -3 -11 -12
-20 -19 -20 -16 0 -18 -28 -5 -49 5 -8 16 -11 29 -7 18 6 20 11 12 31 -6 15
-6 27 0 30 6 4 10 14 10 24 0 24 56 63 83 58 20 -3 19 -5 -10 -16 -33 -13 -54
-50 -51 -88 1 -13 8 -23 15 -23 7 0 13 -3 13 -7 0 -13 52 -33 82 -33 15 0 28
5 28 11 0 5 -4 8 -8 5 -14 -9 -72 26 -72 44 0 20 46 35 97 31 23 -2 34 3 43
18 13 25 32 28 23 4 -3 -10 3 -7 13 7 24 34 37 41 49 29 6 -6 5 -13 -5 -19
-11 -7 -7 -10 18 -10 29 0 32 -3 32 -30 0 -20 -5 -30 -15 -30 -8 0 -15 -4 -15
-9 0 -11 29 -23 40 -16 5 3 12 1 15 -5 9 -15 35 7 35 31 0 10 5 21 10 24 13 8
13 45 0 45 -5 0 -13 -8 -19 -17 -5 -10 -13 -15 -16 -11 -4 4 2 17 14 29 16 17
18 26 10 33 -8 8 -13 7 -16 -1 -3 -7 -14 -13 -25 -13 -14 0 -18 5 -14 15 6 17
-9 20 -20 4 -4 -7 -12 1 -21 19 -10 20 -20 29 -30 25 -12 -5 -12 -7 -1 -14 21
-14 -12 -30 -47 -23 -38 8 -57 24 -28 24 27 0 38 32 21 62 -10 20 -13 21 -16
6 -2 -10 -12 -18 -22 -18 -10 0 -33 -12 -50 -27 -27 -22 -42 -27 -95 -28 -55
-1 -62 1 -57 17 2 10 8 16 12 13 9 -6 24 24 21 43 -1 6 3 12 9 12 5 0 10 -4
10 -10 0 -16 46 -41 64 -34 22 8 21 24 -2 24 -44 0 -56 52 -21 89 28 30 61 41
96 32 23 -6 28 -13 28 -37 0 -26 3 -29 34 -29 24 0 36 5 39 18 2 9 8 17 12 17
5 0 16 7 24 16 9 8 16 11 16 6 0 -5 15 -7 33 -5 68 8 107 8 107 1 0 -5 7 -8
15 -8 13 0 13 3 3 20 -7 11 -21 20 -31 20 -13 0 -17 5 -13 16 4 12 1 14 -13 9
-11 -3 -22 -1 -26 5 -11 18 -26 11 -36 -20 -6 -16 -14 -28 -19 -25 -11 7 -19
55 -9 55 5 0 9 9 9 20 0 23 10 26 28 8 13 -13 15 -5 6 30 -8 27 -39 29 -54 3
-10 -19 -66 -38 -77 -27 -4 3 4 17 16 30 13 14 18 27 13 30 -17 10 -41 -5 -44
-27 l-3 -22 -13 22 c-11 19 -9 25 15 48 24 22 26 27 13 36 -12 8 -10 10 10 8
43 -2 50 0 50 21 0 17 -3 18 -26 10 -30 -12 -44 -6 -44 19 0 33 33 62 78 68
l43 6 -10 -27 c-6 -14 -9 -26 -6 -26 2 0 27 5 55 11 48 10 63 23 38 31 -23 8
1 36 38 42 26 5 39 4 45 -6 15 -23 10 -36 -18 -46 l-28 -10 30 -7 c17 -4 47
-13 68 -20 l39 -12 -32 -26 c-28 -24 -39 -27 -113 -27 -45 0 -88 -4 -95 -8
-16 -11 -5 -42 15 -42 9 0 13 -6 10 -13 -4 -10 2 -13 20 -9 24 4 24 3 13 -19
-7 -13 -18 -27 -24 -31 -6 -4 -7 -10 -3 -14 4 -4 16 1 26 10 11 10 31 16 48
14 23 -2 28 -7 25 -27 -2 -19 1 -22 15 -16 38 15 55 15 49 0 -3 -8 -3 -15 0
-15 3 0 10 13 15 29 16 44 37 47 37 5 0 -22 -5 -34 -14 -34 -15 0 -19 -16 -6
-24 5 -3 16 4 26 15 17 20 17 20 48 -3 29 -20 31 -21 24 -2 -24 57 -17 65 38
44 16 -6 27 -6 31 0 4 6 1 10 -4 10 -6 0 -11 7 -11 16 0 13 8 15 35 12 24 -3
36 1 40 11 5 13 8 13 14 2 6 -9 11 -10 15 -2 11 18 26 13 26 -9 0 -15 7 -20
28 -20 l27 -1 -25 -14 c-19 -10 -27 -10 -32 -2 -5 7 -8 8 -8 1 0 -5 -12 -15
-27 -21 l-28 -12 28 6 c21 4 27 1 28 -13 0 -18 1 -17 9 1 5 11 9 14 9 6 1 -7
7 -11 16 -8 27 11 26 -13 -1 -48 -19 -25 -30 -32 -35 -24 -5 9 -11 8 -23 -4
-20 -19 -20 -27 -3 -27 24 0 21 -86 -4 -111 -11 -11 -18 -24 -14 -27 10 -10
39 13 53 41 7 15 17 27 23 27 5 0 9 4 9 9 0 6 -9 8 -20 6 -12 -2 -20 2 -20 9
0 9 9 12 25 8 15 -2 25 0 25 8 0 7 -8 9 -20 5 -12 -4 -20 -2 -20 5 0 14 25 40
38 40 6 0 12 7 16 15 3 8 10 15 16 15 5 0 10 -7 10 -15 0 -8 -4 -15 -8 -15 -4
0 -9 -11 -10 -25 -2 -28 6 -31 33 -11 18 13 21 11 32 -15 7 -16 18 -29 25 -29
9 0 9 3 1 11 -17 17 -4 41 18 34 13 -4 19 -1 19 9 0 17 57 31 88 22 20 -7 20
-7 -1 -30 -12 -12 -31 -26 -41 -29 -10 -4 -17 -10 -14 -13 9 -8 61 16 74 34
12 16 13 16 19 0 4 -10 13 -18 21 -18 8 0 14 -9 14 -20 0 -14 -7 -20 -24 -20
-16 0 -26 -7 -29 -22 -8 -30 -3 -32 25 -14 12 8 42 16 65 19 38 3 74 17 45 17
-7 0 -12 7 -12 15 0 8 -9 15 -19 15 -39 0 -31 20 9 26 23 4 37 10 30 14 -6 4
-10 11 -9 16 1 5 1 11 0 14 -9 22 -9 70 -1 70 6 0 10 -16 10 -35 0 -19 5 -35
10 -35 6 0 10 6 10 13 1 6 7 1 15 -13 9 -15 12 -37 8 -55 -5 -26 -4 -28 11
-16 9 8 16 28 16 48 0 39 21 66 44 57 12 -5 15 -2 10 10 -4 11 -2 16 7 14 9
-2 13 4 11 15 -3 18 22 24 33 7 3 -5 1 -10 -4 -10 -6 0 -11 -11 -11 -25 0 -14
3 -25 8 -25 4 0 6 -18 4 -40 -4 -43 12 -55 24 -18 3 12 13 28 21 36 12 13 17
11 39 -8 13 -13 24 -31 25 -39 0 -11 2 -12 6 -3 2 6 11 12 19 12 8 0 14 7 14
16 0 8 5 12 10 9 15 -9 12 -35 -4 -35 -14 0 -26 -29 -26 -67 0 -13 5 -23 10
-23 6 0 10 9 10 21 0 14 5 19 14 16 10 -4 16 5 20 28 8 43 29 59 66 51 22 -4
30 -2 30 8 0 7 7 19 15 26 8 7 15 16 15 21 0 13 -87 11 -95 -1 -10 -16 -26 0
-20 19 4 12 -1 17 -18 18 -12 0 -16 -1 -9 -4 27 -10 0 -20 -35 -13 -24 6 -40
5 -44 -1 -4 -7 -9 -4 -12 5 -4 9 -11 16 -17 16 -15 0 -12 -40 3 -41 6 0 1 -5
-13 -10 -19 -8 -27 -6 -37 7 -18 25 -16 35 7 41 11 3 17 9 14 14 -3 5 5 9 18
10 22 1 21 2 -4 12 -16 6 -28 15 -28 20 0 5 6 7 13 4 6 -2 23 -8 37 -12 22 -7
23 -6 11 9 -7 9 -20 16 -28 16 -10 0 -13 9 -11 28 3 26 5 27 74 30 65 3 72 5
83 28 10 23 17 26 59 23 77 -3 134 16 102 36 -5 3 -10 17 -10 31 0 20 5 24 29
24 16 0 49 -11 72 -25 24 -14 56 -25 70 -25 32 0 77 -35 57 -44 -10 -5 -10 -7
0 -12 19 -9 15 -36 -5 -30 -10 3 -39 8 -66 12 -26 3 -50 10 -53 15 -16 26 -81
-9 -70 -37 3 -8 -1 -14 -10 -14 -8 0 -12 5 -9 10 3 6 -3 10 -14 10 -12 0 -21
5 -21 10 0 6 -4 10 -10 10 -5 0 -10 -6 -10 -13 0 -8 -9 -22 -20 -32 -11 -10
-20 -25 -20 -34 0 -12 -2 -13 -8 -3 -6 9 -15 5 -34 -17 l-27 -29 26 -7 c29 -7
53 9 53 36 0 11 5 19 10 19 6 0 10 -9 10 -21 0 -15 5 -20 23 -17 14 2 21 9 21
20 -2 17 0 17 28 0 41 -24 67 -54 51 -59 -21 -8 -15 -22 7 -16 11 3 20 9 20
14 0 15 28 10 34 -7 3 -8 11 -12 17 -8 8 5 7 9 -2 14 -9 6 -8 12 5 25 9 10 20
15 23 11 3 -3 12 -1 19 5 9 7 19 7 34 -1 21 -11 22 -10 15 18 -3 17 -2 33 4
36 5 4 8 17 5 30 -3 21 -1 23 26 20 24 -3 30 0 30 15 0 11 3 21 8 23 4 2 18
16 32 31 25 28 25 29 5 43 -18 13 -18 15 -3 30 15 16 20 16 57 0 23 -9 54 -16
70 -16 37 0 64 -26 57 -54 -19 -66 -19 -69 -5 -64 8 3 13 10 12 17 -4 16 42
24 92 17 l44 -6 -5 29 c-3 16 -1 38 5 49 9 17 6 22 -22 35 -17 8 -72 20 -121
27 -48 8 -94 20 -101 27 -8 7 -20 13 -28 13 -8 0 -36 12 -63 26 -46 24 -50 25
-81 10 -24 -11 -51 -14 -115 -9 -83 5 -83 5 -115 -26 -26 -25 -41 -31 -75 -31
-49 0 -107 31 -115 61 -5 18 -20 24 -51 20 -7 -1 -15 5 -18 14 -3 8 -14 15
-23 15 -9 0 -22 5 -28 11 -8 8 -17 8 -31 0 -11 -6 -29 -11 -40 -11 -11 0 -25
-7 -32 -15 -19 -23 -66 -19 -84 7 -25 36 -19 52 32 86 54 36 99 41 142 15z
m-1483 -230 c4 -10 -1 -22 -14 -33 -15 -12 -18 -21 -12 -31 16 -26 10 -98 -10
-118 -30 -30 -101 -6 -82 27 6 10 6 24 0 34 -12 22 3 54 30 63 12 3 18 12 15
20 -3 7 -1 23 6 34 13 25 58 28 67 4z m-837 -557 c0 -13 4 -13 35 0 41 17 91
18 101 3 9 -14 5 -133 -4 -124 -2 2 -18 -12 -36 -31 -22 -24 -37 -33 -49 -28
-9 3 -17 10 -17 15 0 12 17 11 23 -1 3 -6 4 -5 3 2 -1 7 -14 14 -29 16 -16 2
-24 8 -21 16 7 17 -51 29 -76 16 -29 -15 -37 -12 -44 16 -5 20 0 34 25 62 43
49 89 69 89 38z m5885 -337 c5 -5 18 -9 30 -9 11 0 32 -10 48 -23 15 -12 41
-33 57 -47 17 -13 30 -34 30 -46 0 -12 7 -27 15 -34 30 -25 16 -145 -21 -185
-22 -24 -28 -50 -26 -112 1 -22 7 -33 17 -33 8 0 15 -7 15 -15 0 -16 46 -65
61 -65 23 0 98 -66 99 -86 0 -12 7 -27 16 -35 28 -23 12 -163 -27 -241 -13
-27 -11 -43 13 -92 16 -33 34 -51 70 -71 56 -31 54 -41 -16 -78 -39 -21 -136
-32 -136 -16 0 4 -17 13 -37 19 -49 16 -123 62 -123 76 0 6 7 17 16 25 14 11
14 13 0 21 -9 5 -16 16 -16 23 0 30 -72 85 -135 103 -32 10 -46 22 -72 64 -22
35 -33 65 -33 90 0 21 -4 38 -10 38 -6 0 -6 9 0 26 6 14 10 39 10 55 0 16 6
38 12 49 10 15 10 22 0 32 -6 6 -12 20 -12 30 0 37 -29 75 -68 91 -21 8 -50
30 -64 49 -14 18 -35 42 -45 53 -38 40 -53 160 -27 217 9 21 23 38 31 38 7 0
13 6 13 14 0 8 8 17 19 21 10 3 26 14 36 25 10 11 30 20 44 20 14 0 35 8 46
16 16 12 35 14 90 9 39 -4 74 -11 80 -16z m982 -395 c12 -8 31 -14 43 -14 11
0 20 -5 20 -11 0 -6 11 -20 24 -30 56 -44 84 -163 51 -219 -44 -76 -58 -145
-39 -183 8 -15 22 -31 30 -34 7 -3 14 -11 14 -17 0 -14 62 -46 90 -46 10 0 22
-4 25 -10 3 -5 17 -10 30 -10 36 0 81 -72 101 -161 12 -52 13 -74 5 -77 -15
-5 -14 -27 2 -53 10 -18 9 -23 -1 -26 -10 -4 -10 -8 0 -21 7 -8 13 -18 12 -21
0 -3 9 -21 20 -40 16 -28 21 -31 26 -16 5 14 8 14 17 3 26 -32 37 -67 39 -120
l3 -58 -24 18 c-13 9 -26 27 -29 39 -4 12 -21 39 -40 59 -19 21 -37 49 -39 63
-18 91 -135 136 -242 95 -22 -8 -48 -17 -57 -21 -10 -3 -18 -9 -18 -14 0 -5
-7 -9 -16 -9 -9 0 -40 -13 -68 -29 -34 -20 -84 -36 -146 -47 -78 -14 -100 -23
-123 -46 -16 -15 -33 -28 -38 -28 -12 0 -12 -17 1 -25 12 -7 2 -57 -13 -67 -6
-3 -16 0 -23 7 -8 7 -27 19 -43 26 -25 11 -30 20 -34 59 -2 29 1 50 10 60 11
12 13 11 13 -9 0 -14 5 -21 13 -18 6 2 11 9 10 15 -2 6 11 19 27 29 17 9 30
21 30 26 0 5 12 6 26 3 17 -5 23 -3 19 4 -3 5 2 13 12 17 10 4 20 9 23 13 11
14 78 50 93 50 15 0 27 50 43 183 5 45 10 57 24 57 11 0 24 14 34 40 9 22 20
40 26 40 5 0 10 20 10 44 0 38 -4 48 -29 65 -16 12 -32 21 -36 21 -3 0 -21 11
-38 24 -18 13 -61 31 -97 40 -36 9 -70 24 -77 33 -7 10 -16 23 -20 28 -31 39
-67 177 -51 193 5 5 10 18 13 30 4 23 51 74 81 87 77 35 233 40 281 9z m1545
-25 c40 -6 96 -19 123 -30 28 -10 55 -19 61 -19 14 0 94 -76 94 -88 0 -5 7
-23 16 -41 14 -28 15 -44 5 -109 -6 -42 -13 -106 -17 -141 -3 -38 -11 -69 -19
-75 -8 -6 -19 -24 -24 -39 -25 -66 -163 -74 -381 -21 -73 18 -87 31 -127 114
-25 53 -25 58 -15 145 23 185 50 266 98 287 13 6 24 15 24 20 0 11 76 10 162
-3z m-3202 -623 c0 -5 9 -19 19 -30 10 -12 36 -54 56 -94 20 -40 44 -76 52
-79 18 -7 34 16 27 39 -6 19 5 68 16 68 4 0 20 -11 36 -25 16 -14 41 -31 56
-37 14 -7 38 -30 52 -52 44 -68 33 -210 -18 -234 -13 -6 -29 -6 -38 -1 -10 6
-20 3 -30 -9 -12 -14 -13 -32 -6 -102 5 -47 11 -134 13 -195 5 -144 8 -162 44
-227 38 -71 51 -143 51 -287 1 -70 6 -128 14 -146 10 -25 10 -34 -3 -60 -20
-40 -18 -151 3 -174 9 -10 16 -26 16 -37 0 -21 -60 -84 -80 -84 -8 0 -22 -8
-32 -17 -10 -9 -28 -17 -41 -18 -30 -2 -34 -37 -6 -50 35 -16 45 -40 30 -69
-13 -23 -11 -27 18 -56 17 -17 31 -40 31 -50 0 -17 25 -33 46 -29 21 4 30 -3
41 -28 16 -40 11 -98 -12 -123 l-20 -22 33 -27 c37 -32 39 -37 12 -44 -12 -3
-20 -14 -20 -25 0 -29 -12 -33 -49 -19 -29 11 -32 16 -29 44 4 35 -1 40 -21
21 -21 -21 -42 19 -39 71 3 40 0 47 -23 58 -15 7 -30 25 -33 39 -5 20 -10 23
-20 15 -10 -8 -20 -8 -37 2 -46 24 -69 42 -69 52 0 5 -15 17 -33 26 -26 13
-33 22 -35 52 -2 21 -7 37 -12 37 -8 0 -5 -42 6 -77 2 -7 -7 -25 -21 -40 l-23
-28 -11 28 c-6 16 -11 48 -11 71 0 24 -5 68 -10 97 -6 30 -13 83 -16 119 -4
36 -13 84 -21 108 -10 30 -13 76 -11 150 1 59 -3 139 -10 179 -16 87 -11 265
10 383 16 92 16 193 -3 355 -7 55 -14 163 -16 240 -2 77 -5 163 -6 190 -3 77
20 143 66 186 l39 38 39 -31 c21 -17 39 -36 39 -42z m-885 -296 c17 -7 33 -13
38 -12 4 1 7 -6 7 -16 0 -11 11 -24 25 -30 27 -12 32 -27 14 -38 -8 -4 -7 -9
2 -15 11 -7 7 -15 -16 -36 -28 -24 -30 -32 -34 -107 -3 -63 -7 -83 -21 -93
-12 -9 -16 -23 -14 -48 2 -29 -2 -39 -23 -52 -21 -14 -28 -15 -46 -3 -12 7
-39 14 -60 15 -22 1 -42 8 -46 14 -4 6 -25 14 -47 17 -43 6 -80 21 -106 42 -9
8 -22 11 -27 7 -6 -3 -11 -1 -11 5 0 5 -15 17 -33 26 -32 15 -77 69 -77 92 0
6 9 16 20 22 11 6 20 21 20 33 0 12 9 28 20 35 11 7 20 20 20 29 0 9 10 31 22
49 18 26 37 37 88 53 36 11 80 20 99 20 18 0 35 2 37 4 9 9 120 -1 149 -13z
m3899 -146 c23 -9 20 -69 -5 -121 -12 -24 -25 -70 -29 -101 -9 -75 -47 -154
-104 -220 -25 -30 -46 -59 -46 -66 0 -21 -50 -89 -130 -177 -135 -150 -157
-168 -229 -189 -67 -20 -102 -28 -134 -29 -9 -1 -25 -10 -34 -21 -13 -14 -20
-17 -30 -8 -7 6 -13 7 -13 3 0 -4 -10 -1 -23 8 -12 8 -43 18 -67 22 -68 11
-110 31 -110 52 0 11 -5 24 -11 30 -6 6 -11 32 -11 57 -1 25 -7 51 -14 57 -17
14 -55 2 -72 -23 -11 -15 -22 -18 -69 -13 -84 8 -103 15 -103 36 0 10 -4 19
-10 19 -5 0 -10 9 -10 19 0 26 46 52 155 90 50 17 95 38 102 47 11 14 14 15
33 1 21 -15 55 -13 46 2 -3 4 0 13 5 21 8 12 12 12 16 3 12 -32 63 8 63 50 0
24 59 87 82 87 10 0 18 7 18 15 0 8 6 15 14 15 22 0 107 47 146 80 19 17 73
49 120 72 47 23 87 46 88 50 2 4 8 8 14 8 5 0 36 16 69 36 43 27 65 35 84 30
14 -4 25 -2 25 4 0 5 11 10 24 10 13 0 30 7 37 16 24 29 77 42 113 28z m-9622
-202 c7 -5 29 -13 49 -17 39 -7 72 -51 49 -65 -7 -4 -5 -19 7 -46 l18 -39 3
40 c2 25 11 48 25 61 29 26 49 20 41 -12 -5 -21 -2 -27 25 -37 40 -15 43 -42
4 -32 -15 3 -31 11 -34 17 -7 10 -68 -48 -69 -64 0 -8 16 -11 23 -5 9 6 37
-28 37 -45 0 -19 -1 -19 -19 3 -18 22 -19 22 -45 6 -15 -10 -31 -15 -36 -12
-13 8 -13 82 0 90 6 3 10 17 10 31 0 19 -5 24 -25 24 -14 0 -25 5 -25 10 0 6
-7 10 -15 10 -8 0 -25 5 -38 12 -12 6 -29 14 -37 18 -8 4 -16 17 -18 29 -2 11
-10 21 -17 21 -8 0 -12 6 -9 14 6 15 74 7 96 -12z m8806 -33 c1 -8 -15 -25
-35 -39 -21 -14 -51 -38 -68 -53 -16 -15 -48 -39 -70 -51 -48 -29 -134 -43
-145 -25 -5 7 -40 14 -84 17 -42 2 -76 9 -76 13 0 5 12 9 26 9 25 0 183 72
194 89 9 14 102 41 124 36 11 -3 41 1 66 9 51 16 64 15 68 -5z m1220 -32 c13
-13 29 -56 41 -107 l20 -85 -22 -47 c-24 -52 -42 -63 -120 -72 -26 -3 -66 -15
-90 -27 -23 -12 -62 -23 -87 -23 -25 -1 -51 -5 -57 -9 -7 -5 -16 -6 -21 -4 -4
3 -22 -3 -41 -12 -30 -16 -37 -16 -63 -3 -16 8 -36 29 -45 47 -15 31 -15 35 6
63 11 17 21 33 21 37 0 16 96 115 120 123 14 5 33 16 41 24 8 7 37 22 64 32
28 11 54 25 58 33 4 7 19 13 32 13 13 0 30 6 37 13 30 31 79 33 106 4z m-8922
-63 c-9 -33 -32 -58 -41 -44 -3 5 -1 10 6 10 11 0 11 2 0 13 -10 10 -15 8 -29
-10 -9 -12 -28 -23 -42 -25 -14 -2 -24 -9 -23 -15 3 -12 -43 -27 -57 -18 -4 3
-10 -1 -12 -7 -3 -8 -23 -13 -49 -14 -140 -3 -145 -4 -126 -18 23 -18 22 -25
-8 -36 -33 -13 -115 -1 -115 16 0 23 -21 27 -27 5 -4 -14 -13 -21 -30 -21 -27
0 -22 20 5 21 9 0 12 3 5 5 -6 3 -33 -2 -60 -11 -26 -10 -82 -20 -123 -24 -51
-4 -74 -10 -72 -19 2 -11 -28 -16 -75 -15 -7 1 -13 -3 -13 -8 0 -5 5 -9 10 -9
6 0 10 -4 10 -10 0 -13 -65 -13 -112 1 -23 6 -38 16 -38 25 0 9 5 12 11 8 6
-3 15 -1 19 6 5 8 13 9 26 3 11 -6 39 -8 63 -5 l44 4 -39 19 -39 18 33 1 c30
0 48 19 20 21 -10 0 -10 2 0 6 7 3 22 -3 33 -13 17 -15 22 -16 47 -4 15 8 44
13 65 11 22 -2 37 2 37 8 0 6 11 11 24 11 13 0 29 6 36 14 6 8 18 12 26 9 8
-3 20 0 28 6 15 12 49 4 41 -9 -3 -5 -1 -11 4 -15 6 -3 13 10 17 30 5 27 11
35 28 36 20 0 20 1 1 9 -19 8 -17 11 15 14 21 2 40 -19 40 -44 0 -12 4 -18 10
-15 6 4 8 15 5 26 -4 11 -2 19 5 19 6 0 9 4 5 10 -3 5 7 9 22 9 50 1 178 12
193 18 8 3 52 6 97 7 46 1 86 5 89 9 13 13 16 7 10 -19z m589 -33 c-3 -11 -24
-34 -46 -52 l-40 -32 33 -34 c36 -38 69 -54 168 -84 36 -11 81 -27 100 -36 46
-21 116 -28 143 -14 75 38 123 43 175 18 18 -8 29 -7 50 5 29 17 132 14 132
-3 0 -17 107 -10 121 7 9 11 23 14 45 11 26 -4 33 -2 37 15 5 16 9 18 26 9 11
-6 26 -10 33 -9 21 5 21 -33 -2 -57 -18 -19 -19 -23 -6 -28 9 -3 18 -2 21 3 7
11 48 13 58 4 16 -16 -45 -43 -119 -53 -142 -19 -153 -19 -165 -5 -6 8 -26 14
-43 14 l-31 -1 24 -19 c13 -11 30 -20 38 -20 8 0 12 -4 9 -9 -3 -5 7 -13 22
-19 17 -6 28 -17 29 -31 1 -11 -1 -21 -5 -21 -4 0 -13 -15 -20 -32 -32 -82
-33 -82 -102 -90 -71 -8 -115 -23 -144 -50 -29 -27 -162 -89 -198 -93 -83 -8
-188 -28 -236 -46 -29 -10 -66 -19 -82 -19 -20 0 -30 -5 -30 -15 0 -8 -7 -15
-15 -15 -8 0 -15 8 -15 19 0 10 7 24 15 31 21 18 19 27 -10 34 -14 4 -35 17
-46 30 -14 16 -36 26 -67 30 -98 14 -102 16 -102 45 0 20 7 31 25 39 14 6 26
20 26 29 4 58 -3 99 -21 131 -13 22 -19 44 -15 61 3 14 6 48 7 75 1 45 -1 51
-40 83 -44 36 -46 53 -9 53 16 0 42 22 82 69 51 59 69 72 120 89 63 22 81 17
70 -17z m2695 -294 c10 -6 28 -28 40 -50 18 -32 21 -51 19 -110 -6 -113 -12
-112 -166 41 -95 95 -98 98 -86 127 5 15 16 17 91 11 46 -4 92 -12 102 -19z
m5584 -163 c18 -7 22 -24 5 -24 -12 0 -74 -65 -97 -102 -9 -16 -20 -28 -24
-28 -4 0 -8 -11 -8 -24 0 -18 -8 -27 -30 -35 -16 -5 -30 -13 -30 -16 0 -3 4
-4 9 -1 10 7 23 -33 15 -46 -3 -5 -17 -2 -31 7 -20 13 -45 16 -129 13 -57 -2
-98 -1 -92 3 9 6 7 10 -6 15 -10 4 -21 2 -25 -4 -5 -8 -12 -5 -24 8 -9 11 -26
20 -36 20 -11 0 -22 4 -25 8 -3 5 9 7 27 4 25 -3 29 -1 17 7 -13 9 -12 11 6
11 11 0 24 4 30 9 5 5 27 11 49 14 93 11 165 44 165 75 0 5 7 15 15 22 12 10
15 10 15 -3 0 -17 21 -27 56 -27 17 0 24 6 24 18 0 10 12 30 28 44 37 35 64
44 96 32z m-7465 -143 c32 -17 67 -28 77 -25 17 4 19 -1 21 -45 2 -35 -2 -51
-12 -55 -8 -3 -15 -16 -16 -28 l-1 -23 -7 23 c-6 23 -7 23 -44 -17 -20 -22
-37 -44 -37 -49 0 -5 -11 -19 -25 -32 -14 -13 -39 -45 -56 -72 -17 -26 -33
-48 -36 -48 -2 0 -2 43 1 95 5 82 3 96 -12 105 -16 11 -16 11 0 6 27 -8 32 13
9 38 -33 35 -26 81 22 134 27 29 46 28 116 -7z m1384 -71 c4 -16 16 -38 27
-47 11 -10 20 -24 20 -33 0 -25 29 -100 50 -128 19 -28 31 -115 16 -129 -4 -4
-26 -8 -49 -9 -22 0 -43 -6 -45 -12 -7 -21 -29 -13 -41 16 -17 40 -42 53 -81
42 -19 -5 -39 -6 -49 -1 -15 9 -51 -7 -51 -22 0 -4 14 -21 31 -38 25 -25 33
-29 40 -18 6 10 9 7 9 -12 0 -14 5 -30 12 -37 6 -6 9 -15 5 -18 -3 -4 -13 1
-22 10 -19 18 -31 20 -40 6 -6 -10 -11 -8 -72 24 -17 9 -38 16 -47 16 -18 0
-22 25 -6 35 6 3 10 1 10 -4 0 -20 40 -11 55 13 24 37 10 59 -34 52 -20 -3
-42 -2 -49 2 -15 10 -12 59 4 73 9 7 12 -1 10 -31 0 -22 0 -40 1 -40 17 0 53
23 53 34 0 9 9 20 20 26 16 8 20 8 20 -4 0 -22 36 -39 58 -27 30 16 49 43 35
48 -18 6 -16 54 2 67 11 8 16 30 16 76 1 63 12 95 29 85 5 -3 11 -1 15 5 14
22 42 10 48 -20z m3412 3 c85 -6 106 -5 130 11 12 8 25 12 29 9 14 -14 4 -31
-29 -49 -19 -10 -35 -22 -35 -26 0 -5 -8 -8 -17 -9 -14 0 -15 -2 -3 -6 8 -2
29 -11 47 -19 37 -17 59 -18 68 -4 4 6 11 7 17 4 6 -4 14 0 19 7 6 9 7 5 3
-14 -6 -26 -5 -28 20 -21 17 4 26 2 26 -6 0 -7 7 -10 16 -6 10 4 14 1 12 -6
-2 -7 -25 -19 -51 -27 -31 -10 -47 -20 -47 -31 0 -23 101 -21 127 3 19 16 53
24 53 11 0 -3 -10 -14 -22 -25 -13 -10 -18 -18 -11 -19 6 0 18 7 27 15 16 16
96 21 96 6 0 -5 3 -17 7 -26 5 -14 2 -16 -15 -11 -11 4 -23 2 -26 -3 -7 -11
-88 -12 -96 -1 -3 4 -20 10 -37 13 -28 6 -33 4 -33 -13 0 -11 -7 -20 -15 -20
-21 0 -19 -20 3 -21 24 -2 -57 -27 -88 -28 l-25 0 23 12 c12 7 19 16 15 20 -4
4 3 10 15 14 25 6 29 31 6 40 -9 3 -21 -3 -30 -16 -9 -12 -19 -19 -24 -16 -4
3 -10 -2 -13 -10 -3 -7 -23 -17 -44 -21 -21 -4 -50 -13 -64 -22 -27 -15 -59
-11 -59 7 0 6 7 8 15 5 12 -5 15 2 14 27 0 38 -11 71 -22 69 -4 0 -15 3 -24 8
-15 9 -14 13 6 41 12 17 28 31 34 31 19 1 62 38 54 46 -4 5 -16 3 -26 -3 -25
-16 -102 -29 -81 -14 12 9 11 11 -8 11 -18 0 -21 4 -17 23 4 15 0 29 -14 41
-28 26 -17 48 17 34 15 -6 50 -12 77 -15z m-1360 -73 c22 -33 46 -60 53 -60
14 0 8 -64 -10 -112 -16 -42 -66 -48 -112 -13 l-35 26 1 85 c1 79 3 88 27 110
14 13 28 24 31 24 3 0 23 -27 45 -60z m3941 -95 c61 -66 71 -80 93 -145 26
-73 26 -72 -5 -64 -16 4 -35 11 -41 17 -9 6 -15 4 -19 -7 -9 -25 1 -41 26 -41
19 0 26 -7 31 -35 7 -31 4 -38 -27 -68 -19 -18 -34 -37 -34 -42 0 -5 -13 -16
-30 -25 -16 -8 -29 -19 -28 -23 3 -10 -73 -88 -97 -99 -27 -14 -82 2 -95 27
-13 24 -23 25 -43 6 -13 -13 -17 -12 -37 10 -13 13 -29 24 -37 24 -7 0 -13 11
-13 25 0 14 -6 25 -12 25 -8 1 -5 6 5 15 18 13 18 14 -3 25 -15 8 -25 8 -34 1
-6 -6 -22 -7 -35 -4 -17 4 -20 8 -9 15 8 5 -5 6 -34 2 -40 -5 -48 -4 -48 10 0
13 11 16 50 16 28 0 59 5 70 12 15 10 22 9 38 -5 10 -9 26 -17 35 -17 9 0 17
-4 17 -10 0 -5 5 -10 10 -10 6 0 10 9 10 20 0 11 -7 20 -15 20 -8 0 -15 5 -15
10 0 6 9 10 20 10 17 0 40 32 40 56 0 10 -33 3 -46 -11 -16 -16 -44 -20 -44
-7 0 8 49 32 67 32 7 0 13 7 13 15 0 8 7 15 16 15 8 0 12 4 9 10 -3 5 1 20 9
32 9 12 16 30 16 39 0 19 46 42 70 34 10 -3 21 -1 25 5 4 6 -4 10 -19 10 -30
0 -35 17 -8 27 27 10 42 36 30 50 -7 9 -6 18 3 31 38 47 53 43 125 -33z
m-2206 -117 c0 -12 48 -10 55 2 3 6 15 10 26 10 21 0 39 -35 39 -76 0 -15 6
-24 15 -24 9 0 15 -9 15 -23 0 -13 3 -27 7 -31 15 -14 30 -75 25 -104 -4 -27
-1 -31 24 -34 32 -3 41 -33 10 -33 -31 0 -41 -28 -27 -74 8 -30 17 -41 31 -41
23 0 23 0 10 34 -7 21 -6 26 10 31 22 7 103 -31 95 -45 -5 -8 68 -24 90 -20
42 9 57 -1 82 -57 25 -59 40 -76 56 -66 15 9 84 -81 79 -104 -2 -7 2 -13 9
-13 6 0 9 -8 6 -20 -3 -13 1 -21 14 -25 10 -4 19 -10 19 -15 0 -22 60 -138 74
-143 18 -7 29 -33 39 -86 6 -29 5 -32 -11 -26 -9 3 -42 11 -72 17 -30 5 -59
13 -63 18 -5 4 -29 1 -54 -6 -25 -8 -86 -15 -136 -16 -62 -1 -98 -6 -109 -16
-9 -8 -21 -11 -26 -8 -5 3 -15 -8 -22 -24 -7 -17 -18 -30 -25 -30 -8 0 -20 -6
-27 -13 -45 -45 -111 -33 -135 24 -23 54 -14 79 37 107 62 35 65 39 67 105 2
57 2 58 -25 55 -21 -2 -28 2 -30 20 -2 12 -7 22 -12 22 -11 0 -25 40 -21 63 1
11 -4 17 -16 17 -22 0 -86 62 -89 86 -4 27 -14 29 -45 12 -27 -16 -29 -16 -39
2 -6 11 -8 31 -4 44 8 33 -14 60 -51 63 -16 1 -35 9 -41 17 -8 12 -13 13 -22
4 -9 -9 -12 -6 -14 13 0 13 -1 31 -2 39 -2 25 -35 24 -46 -2 l-10 -23 4 25 c2
14 7 34 12 45 7 19 7 19 -10 3 -23 -23 -23 -23 -41 13 -13 24 -14 34 -4 45 6
8 8 14 3 14 -5 0 -10 25 -11 56 -1 48 1 57 18 61 10 3 19 10 19 16 0 17 64 72
81 69 9 -2 22 4 29 13 7 8 18 15 26 15 7 0 19 8 26 18 7 11 19 21 27 24 17 5
61 -13 61 -24z m-5586 -48 c6 0 17 -9 24 -20 7 -11 22 -20 33 -20 15 0 19 -5
15 -15 -4 -12 4 -15 37 -16 23 -1 46 -1 51 0 10 2 36 -19 36 -30 0 -4 -12 -6
-27 -4 -16 2 -54 4 -85 4 -44 1 -63 6 -78 21 -11 11 -26 20 -32 20 -7 0 -22 7
-32 15 -10 8 -22 12 -26 10 -5 -3 -11 7 -14 20 -4 17 -12 25 -23 23 -10 -2
-19 4 -21 14 -5 26 37 26 87 1 24 -13 49 -23 55 -23z m2778 -10 c12 -31 19
-66 21 -106 2 -23 6 -30 18 -27 10 3 18 -3 22 -16 6 -26 5 -37 -6 -33 -4 1 -7
-15 -6 -35 2 -21 -4 -48 -12 -61 -13 -21 -12 -25 6 -38 11 -8 30 -12 42 -9 13
3 39 -4 62 -16 22 -11 45 -18 51 -14 14 9 40 -13 40 -34 0 -32 -101 -143 -166
-183 -21 -13 -64 -31 -94 -41 -56 -17 -127 -60 -260 -158 -41 -30 -106 -68
-145 -83 -38 -16 -74 -34 -80 -41 -5 -6 -19 -17 -30 -23 -16 -10 -6 -11 55 -6
41 3 98 9 125 13 28 4 88 7 135 6 47 -1 90 1 95 5 6 4 32 10 59 14 27 3 59 12
70 20 21 13 46 11 46 -3 0 -4 -11 -13 -25 -19 -14 -6 -25 -18 -25 -27 0 -20
26 -19 34 1 5 12 15 14 52 8 38 -5 51 -3 76 16 16 12 35 19 43 17 7 -3 23 2
35 10 19 14 28 14 58 3 20 -7 37 -8 41 -3 3 5 15 10 26 11 11 1 45 5 75 10 32
6 62 6 72 1 9 -5 28 -9 41 -9 26 0 47 -33 47 -76 0 -32 -38 -84 -61 -84 -27 0
-72 -43 -74 -71 -2 -23 -5 -24 -67 -24 -37 0 -69 -3 -73 -7 -4 -4 -4 -19 -1
-35 6 -21 9 -24 17 -12 5 7 9 10 9 4 0 -39 -82 -59 -124 -31 -37 24 -49 20
-44 -14 4 -24 1 -30 -14 -30 -11 0 -34 11 -52 25 -29 22 -36 23 -67 13 -19 -6
-40 -12 -46 -14 -7 -2 -13 -12 -13 -23 0 -32 -74 -49 -219 -51 -35 0 -42 -3
-33 -12 18 -18 15 -38 -5 -38 -10 0 -29 -9 -43 -20 -30 -24 -44 -25 -60 -5
-12 14 -15 13 -33 -6 -14 -15 -22 -18 -30 -10 -15 15 -27 14 -27 -4 0 -10 -10
-15 -30 -15 -16 0 -30 -4 -30 -10 0 -6 -29 -10 -68 -10 -38 0 -72 -3 -76 -7
-14 -14 -81 -32 -84 -23 -5 14 -22 12 -22 -2 0 -9 -18 -13 -62 -12 -68 2 -88
-3 -67 -17 11 -7 10 -9 -3 -9 -9 0 -19 4 -23 10 -3 5 -13 6 -23 3 -15 -6 -15
-4 2 15 11 12 27 22 38 22 10 0 18 4 18 10 0 6 -9 6 -25 0 -16 -6 -25 -6 -25
0 0 20 -21 9 -30 -16 -8 -19 -16 -25 -30 -21 -26 7 -35 -9 -13 -22 16 -9 14
-10 -9 -11 -39 0 -78 20 -71 37 4 10 0 14 -13 11 -11 -2 -18 2 -16 10 2 12 -4
14 -44 15 -30 0 -26 27 5 28 24 2 24 2 4 6 -13 2 -23 9 -23 14 0 6 -9 7 -21 4
-16 -5 -20 -3 -17 6 3 8 19 14 38 15 18 0 38 7 44 16 6 9 20 18 31 21 11 2 -2
5 -30 6 -31 0 -45 -3 -36 -8 9 -6 10 -11 2 -15 -6 -4 -18 3 -28 14 l-18 21 -5
-28 c-5 -27 -26 -34 -24 -8 1 8 -5 16 -12 19 -10 4 -14 -3 -15 -22 l-1 -27
-11 28 c-16 40 -70 32 -74 -10 -3 -25 7 -29 25 -11 15 15 26 4 18 -17 -4 -11
-13 -14 -25 -10 -11 3 -22 1 -25 -4 -4 -6 -21 -20 -38 -33 -17 -12 -28 -17
-25 -11 4 7 3 14 -2 17 -19 12 -22 -15 -6 -41 9 -14 12 -22 6 -18 -7 4 -18 1
-26 -5 -11 -9 -18 -9 -30 4 -15 15 -14 16 9 16 14 0 26 5 26 11 0 6 -9 8 -20
4 -11 -4 -20 -2 -20 4 0 6 7 11 15 11 8 0 15 7 15 15 0 8 -4 15 -9 15 -5 0
-11 10 -14 23 -3 21 -4 20 -16 -8 -41 -99 -47 -103 -124 -95 -10 1 -25 -4 -33
-10 -10 -9 -14 -9 -14 -1 0 6 5 11 10 11 6 0 10 12 10 28 0 21 -2 24 -10 12
-11 -17 -13 -10 -4 14 3 9 14 16 23 17 12 0 12 2 -4 9 -11 5 -14 9 -7 9 7 1
10 6 6 12 -4 8 -9 7 -15 -2 -4 -7 -5 -17 -2 -23 4 -5 -1 -7 -10 -3 -12 5 -17
1 -17 -13 0 -11 -5 -20 -11 -20 -13 0 -39 25 -39 38 0 14 -35 21 -51 11 -11
-6 -11 -11 -1 -21 9 -9 12 -9 12 0 0 7 7 12 16 12 11 0 14 -4 7 -12 -17 -24
-33 -68 -24 -68 5 0 14 15 20 33 9 25 14 29 21 17 6 -9 5 -17 -2 -21 -15 -9 9
-22 27 -15 8 3 15 0 15 -7 0 -8 -20 -12 -64 -12 -72 0 -81 4 -58 25 14 13 15
12 9 -3 -3 -9 -2 -17 3 -17 16 0 23 42 9 51 -8 5 -15 4 -17 -2 -3 -6 -9 -6
-18 2 -11 9 -14 8 -14 -5 0 -10 -5 -14 -10 -11 -6 4 -10 14 -9 23 3 31 -1 40
-17 46 -13 5 -14 3 -6 -7 16 -19 -3 -46 -20 -29 -9 9 -9 12 1 12 9 0 8 4 -3
15 -22 23 -39 19 -30 -7 4 -13 12 -27 19 -33 18 -14 25 -53 11 -58 -6 -2 -20
-1 -31 4 -17 6 -17 8 -2 8 20 1 24 31 3 31 -10 0 -12 7 -8 22 4 18 2 20 -14
13 -10 -4 -32 -9 -49 -10 -54 -3 -73 -14 -68 -36 5 -19 3 -21 -26 -14 -24 5
-31 3 -31 -9 0 -9 -8 -16 -17 -15 -11 0 -13 3 -5 6 6 2 12 16 12 29 0 14 -4
22 -10 19 -5 -3 -16 -3 -22 2 -7 4 -26 8 -43 9 -16 0 -37 2 -45 5 -11 3 -14
-3 -12 -23 1 -16 -2 -28 -8 -28 -5 0 -10 5 -10 10 0 15 -26 12 -39 -4 -10 -11
-8 -17 6 -26 13 -8 14 -13 6 -16 -7 -3 -13 -12 -13 -20 0 -12 -2 -12 -14 -2
-7 7 -11 19 -9 25 3 7 -1 13 -8 13 -11 0 -11 3 1 10 12 8 11 10 -6 10 -13 0
-24 8 -27 20 -10 39 -26 19 -33 -41 -5 -47 -12 -64 -30 -75 -36 -24 -60 -4
-74 60 -16 77 -50 140 -77 144 -13 2 -23 -1 -23 -6 0 -16 -69 -52 -98 -51 -48
1 -85 31 -115 93 -26 53 -31 57 -54 51 -31 -7 -44 8 -36 45 4 21 0 28 -20 37
-31 14 -41 4 -51 -49 -5 -29 -13 -38 -38 -47 -59 -21 -79 -12 -92 42 -6 25 -4
27 23 27 47 0 81 17 81 40 0 11 -4 20 -10 20 -5 0 -10 7 -10 16 0 13 4 13 30
-2 34 -21 48 -13 32 19 -20 42 -24 97 -7 103 8 3 15 16 15 29 0 16 10 28 37
40 l36 17 37 -41 c43 -48 61 -51 86 -13 17 27 31 40 69 67 27 19 87 4 120 -30
20 -19 22 -30 18 -64 -5 -40 -5 -42 18 -38 30 6 102 25 148 39 26 8 35 7 42
-3 6 -10 9 -8 9 9 0 12 5 22 10 22 6 0 9 -3 9 -7 -4 -25 8 -28 116 -25 76 2
115 0 115 -7 0 -6 -9 -11 -19 -11 -25 0 -34 -14 -26 -40 9 -28 22 -25 40 10
16 30 40 34 28 5 -3 -8 0 -15 6 -15 6 0 11 7 11 15 0 24 41 34 96 24 54 -11
324 -10 422 2 35 4 89 4 120 -1 31 -4 77 -4 102 0 25 5 102 14 172 20 100 10
131 10 142 1 11 -10 20 -10 36 -1 15 8 45 10 89 5 55 -5 70 -4 80 9 12 14 8
16 -35 17 -27 1 -57 1 -66 0 -10 -1 -18 3 -18 8 0 6 -7 11 -15 11 -9 0 -27 11
-41 25 -14 14 -31 25 -39 25 -20 0 -19 27 2 38 10 6 14 16 10 26 -4 11 -1 16
11 17 10 0 12 3 5 6 -21 8 17 38 44 35 12 -2 23 1 23 7 0 6 -5 11 -10 11 -7 0
-6 5 2 13 8 10 24 11 53 6 28 -5 44 -3 55 6 13 12 47 21 104 29 10 1 42 21 71
43 46 36 54 39 58 24 7 -28 61 -32 105 -8 50 27 113 77 108 86 -3 4 4 14 15
21 10 8 19 19 19 26 0 6 9 19 20 29 12 10 18 25 15 33 -3 8 3 20 12 27 16 12
16 18 6 45 -6 17 -10 37 -7 44 3 7 6 39 7 71 2 50 6 59 25 66 12 5 22 5 22 0
0 -5 -9 -11 -20 -14 -20 -5 -29 -27 -11 -27 5 0 7 -8 4 -19 -9 -36 16 -31 49
11 37 47 63 111 48 116 -6 2 -7 15 -4 28 4 14 1 31 -6 39 -10 12 -9 15 4 15
17 0 22 15 7 24 -5 3 -14 -1 -21 -9 -7 -8 -16 -12 -21 -9 -14 8 -11 40 5 53
11 9 18 6 34 -14 11 -14 25 -25 30 -25 16 0 26 41 12 50 -14 8 -3 13 58 25 19
4 30 11 26 17 -4 6 8 2 26 -8 17 -10 37 -30 42 -44z m889 -70 c5 0 9 -9 9 -20
0 -11 -4 -20 -9 -20 -12 0 -23 -128 -23 -290 0 -156 -8 -192 -56 -238 -31 -31
-36 -32 -111 -32 -73 0 -80 2 -95 25 -9 13 -16 29 -16 35 0 14 -61 97 -107
145 -48 49 -54 66 -36 87 11 13 21 15 39 8 17 -7 28 -5 40 8 9 9 27 17 39 17
12 1 32 9 45 18 29 20 50 22 50 5 0 -9 3 -9 12 0 10 10 10 17 0 32 -10 17 -10
20 3 20 8 0 15 5 15 11 0 6 6 9 14 6 23 -9 37 13 24 37 -13 23 -12 136 2 150
4 4 13 -1 19 -13 7 -12 9 -21 5 -21 -4 0 3 -9 16 -20 46 -39 70 -13 45 47 -20
48 -2 61 38 27 16 -13 33 -24 38 -24z m-4220 -107 c21 -18 43 -159 34 -217
-10 -60 -27 -116 -36 -116 -10 0 -56 60 -79 102 -9 18 -48 53 -86 79 -100 69
-107 77 -101 122 3 21 8 41 11 44 2 3 29 1 58 -4 35 -6 70 -5 103 2 54 12 71
10 96 -12z m-1839 -45 c38 -17 68 -35 68 -40 0 -4 5 -8 12 -8 15 0 103 -74
148 -125 19 -22 70 -75 113 -117 43 -44 77 -86 77 -97 0 -30 -108 -61 -214
-61 -79 0 -86 2 -112 28 -16 16 -42 51 -59 80 -16 28 -33 52 -36 52 -4 0 -9 8
-13 18 -6 19 -19 40 -53 89 -13 17 -23 34 -23 38 0 3 -16 28 -35 56 -37 54
-39 60 -29 97 9 33 72 30 156 -10z m853 -25 c31 -32 59 -71 62 -86 6 -29 76
-97 100 -97 7 0 13 -3 13 -7 0 -5 13 -15 29 -25 31 -17 81 -87 81 -113 0 -8
-7 -15 -15 -15 -9 0 -15 -9 -15 -21 0 -20 4 -21 50 -17 52 5 65 -1 72 -37 2
-12 12 -20 23 -21 26 0 123 -23 158 -36 18 -7 26 -16 22 -25 -4 -12 2 -14 32
-9 36 6 42 3 112 -64 41 -38 78 -70 83 -70 13 0 83 -113 96 -156 6 -22 21 -49
32 -59 11 -10 20 -24 20 -32 0 -7 5 -13 10 -13 6 0 10 -9 10 -20 0 -12 6 -34
14 -49 8 -15 14 -48 14 -72 -1 -24 2 -56 6 -71 9 -31 13 -29 -79 -32 -38 -1
-50 3 -50 14 -2 44 -18 70 -42 70 -22 0 -24 -3 -19 -27 4 -16 3 -23 -1 -18
-10 13 -43 34 -65 41 -10 4 -18 13 -18 20 0 8 -6 14 -13 14 -13 0 -23 17 -58
95 -18 39 -49 65 -74 63 -26 -2 -65 11 -65 22 0 5 -11 21 -25 36 -14 15 -28
38 -31 51 -6 24 -19 30 -29 13 -8 -12 -36 -1 -57 23 -10 11 -32 22 -50 26 -24
5 -37 16 -48 38 -8 17 -37 52 -64 77 -46 44 -48 49 -43 86 3 22 4 40 3 40 -2
0 -13 -9 -26 -20 l-22 -19 -39 31 c-24 20 -43 47 -53 76 -9 24 -27 60 -41 78
-14 18 -25 37 -25 43 0 6 -8 11 -19 11 -10 0 -21 8 -25 18 -3 9 -14 31 -25 47
-15 23 -20 49 -20 115 -1 80 1 86 27 112 15 15 28 27 28 27 1 1 27 -25 59 -56z
m6256 -284 c49 -35 99 -88 99 -105 0 -17 25 -24 98 -30 37 -3 78 -14 95 -24
34 -21 60 -11 50 18 -4 10 6 5 24 -12 16 -16 40 -31 53 -33 14 -2 34 -10 47
-18 12 -8 36 -15 53 -15 17 0 33 -6 36 -14 9 -23 98 -38 146 -25 47 12 122 3
114 -14 -4 -7 -9 -20 -12 -29 -4 -10 -15 -18 -25 -18 -13 0 -19 -7 -19 -24 0
-24 -16 -36 -51 -36 -11 0 -30 -7 -42 -15 -18 -11 -51 -14 -153 -12 -72 2
-136 7 -144 12 -7 4 -45 10 -83 11 -38 2 -75 8 -82 14 -7 6 -21 13 -31 15 -11
2 -32 8 -49 13 -35 10 -251 5 -274 -7 -9 -5 -44 -14 -78 -21 -47 -11 -64 -19
-72 -37 -6 -13 -17 -23 -25 -23 -8 0 -19 -7 -24 -16 -5 -9 -21 -17 -35 -17
-15 -1 -29 -8 -32 -14 -7 -19 -32 -16 -52 5 -93 97 -97 120 -29 177 22 19 53
46 68 60 32 28 143 65 195 65 19 0 54 -9 77 -20 43 -19 44 -19 97 -1 35 13 56
26 61 41 12 34 1 37 -23 7 -36 -47 -85 -26 -61 26 l10 22 9 -23 c8 -21 10 -22
22 -8 11 13 11 19 0 33 -10 12 -11 17 -2 20 9 3 8 14 -3 45 -24 70 -18 73 47
27z m-5041 -45 c36 -8 104 -33 151 -56 79 -38 89 -46 128 -104 22 -35 41 -66
41 -69 0 -2 -12 0 -27 6 -20 8 -50 7 -106 -2 -86 -13 -161 -8 -204 14 -73 38
-154 135 -177 214 -7 22 -6 22 61 17 37 -3 97 -12 133 -20z m8344 -358 c46
-50 56 -64 56 -80 0 -8 9 -18 21 -21 11 -4 25 -18 31 -31 6 -13 15 -24 20 -24
4 0 8 -9 8 -20 0 -11 -4 -20 -9 -20 -5 0 -13 -10 -16 -21 -7 -20 -12 -21 -79
-15 -72 6 -114 23 -223 89 -29 17 -55 39 -58 48 -3 9 -15 19 -25 22 -12 3 -20
14 -20 26 0 12 -4 21 -10 21 -5 0 -10 5 -10 11 0 7 9 9 22 6 11 -3 35 2 52 11
30 16 89 27 170 30 31 2 43 -4 70 -32z m-3944 -6 c0 -5 -6 -13 -12 -17 -7 -4
-18 -17 -24 -28 -13 -24 -81 -43 -174 -50 -78 -6 -103 5 -69 29 13 9 31 16 39
16 9 0 21 5 26 10 6 6 34 13 62 17 29 3 56 11 62 18 12 14 90 18 90 5z m503
-47 c9 -10 27 -30 39 -44 25 -28 81 -59 109 -59 52 0 61 -23 26 -63 -27 -32
-57 -34 -83 -6 -10 12 -31 27 -46 35 -15 8 -29 22 -32 32 -3 10 -19 25 -35 35
-35 20 -48 52 -31 72 16 20 33 19 53 -2z m-997 -72 c5 -6 36 -6 83 1 68 11 74
10 87 -7 13 -18 19 -18 111 -6 54 7 105 15 114 17 10 3 20 -6 28 -23 8 -16 17
-36 22 -45 12 -24 1 -47 -27 -54 -24 -6 -30 -15 -18 -27 4 -3 13 1 21 9 20 20
35 8 20 -17 -9 -15 -19 -19 -40 -15 -38 8 -77 -3 -77 -20 0 -19 -19 -18 -26 1
-12 30 -27 15 -21 -21 4 -25 2 -34 -6 -31 -7 2 -13 13 -15 25 -3 23 -17 29
-26 13 -4 -5 -1 -11 6 -13 16 -6 1 -28 -19 -28 -9 0 -13 6 -9 15 3 8 1 15 -4
15 -6 0 -11 -7 -11 -15 -1 -8 -3 -18 -4 -22 -2 -5 -6 -18 -10 -30 -4 -13 -13
-23 -20 -23 -22 0 -65 -27 -57 -36 4 -4 -1 -2 -11 5 -15 12 -20 12 -35 -1 -9
-7 -30 -20 -47 -27 -16 -7 -43 -19 -60 -27 -16 -7 -43 -16 -60 -20 -16 -4 -38
-16 -49 -26 -24 -22 -43 -23 -63 -3 -11 12 -27 14 -64 9 -45 -6 -49 -5 -49 15
0 14 -6 21 -19 21 -12 0 -21 9 -25 24 -3 14 -15 28 -27 31 -31 10 -35 -3 -5
-16 14 -7 26 -16 26 -22 0 -13 -54 2 -63 18 -6 11 -14 12 -33 5 -35 -14 -39
-13 -23 7 13 15 11 16 -13 11 -33 -6 -145 47 -166 79 -13 21 -12 23 22 40 20
9 36 20 36 24 0 8 12 9 132 12 52 2 93 8 100 15 7 7 29 12 49 12 28 0 45 7 67
30 17 17 40 30 51 30 11 0 23 5 26 10 3 6 20 10 36 10 23 0 29 4 27 18 -2 13
5 18 35 20 23 2 37 8 37 17 0 7 10 16 23 18 12 2 24 5 28 6 3 0 9 -3 15 -8z
m873 -343 c12 -7 21 -18 21 -25 0 -7 7 -13 15 -13 18 0 18 -8 1 -39 -12 -22
-11 -28 16 -65 16 -23 37 -41 46 -42 27 -1 75 -16 100 -32 13 -9 34 -12 51 -9
15 3 33 1 39 -5 8 -8 15 -8 25 0 30 26 84 -23 63 -57 -9 -14 24 -51 45 -51 31
0 49 -12 49 -31 0 -10 6 -19 14 -19 10 0 17 -16 21 -45 7 -43 6 -46 -39 -88
-44 -40 -47 -47 -48 -93 0 -45 -3 -51 -36 -72 -28 -18 -47 -23 -84 -20 -35 2
-48 -1 -48 -10 0 -7 -4 -11 -9 -7 -5 3 -12 1 -16 -5 -4 -6 -10 -8 -15 -5 -5 3
-16 -2 -25 -11 -13 -14 -29 -15 -90 -9 -63 6 -75 4 -75 -8 0 -17 -21 -27 -58
-27 -25 -1 -26 -1 -7 -12 29 -16 29 -16 15 -33 -7 -8 -16 -12 -21 -9 -5 3 -9
-2 -9 -10 0 -18 -25 -22 -35 -6 -3 6 -14 10 -23 10 -15 0 -28 20 -45 72 -4 10
-19 20 -34 24 -15 3 -50 13 -76 21 -45 14 -47 16 -32 33 8 9 31 26 50 36 19
10 35 22 35 26 0 5 5 8 10 8 6 0 10 -25 10 -55 0 -50 10 -69 24 -46 12 18 16
142 6 185 -8 38 -6 60 10 123 15 53 18 79 10 87 -13 13 -13 78 0 131 8 33 17
106 21 185 2 39 8 43 58 37 27 -3 59 -12 70 -19z m-5666 -95 c45 -45 96 -93
112 -106 32 -26 137 -77 198 -96 77 -26 40 -33 -135 -27 -287 10 -337 15 -398
43 -50 23 -152 73 -240 118 -45 23 -177 112 -184 124 -8 13 27 17 170 20 71 1
131 5 134 8 3 2 62 3 133 1 l128 -3 82 -82z m3711 -198 c-3 -7 -26 -27 -52
-46 -26 -18 -53 -39 -60 -46 -7 -7 -17 -13 -20 -13 -4 0 -18 -10 -32 -23 -14
-12 -48 -39 -77 -60 l-52 -38 -73 39 c-40 21 -88 44 -105 50 -18 7 -47 17 -64
23 l-30 12 51 18 c28 10 67 20 86 23 19 3 42 10 52 16 27 15 232 52 284 51 26
0 50 3 53 8 8 14 44 1 39 -14z m-3830 -64 c236 -96 282 -115 286 -121 3 -4 31
-17 63 -29 72 -26 117 -49 117 -59 0 -4 -131 -5 -292 -3 l-291 3 -66 33 c-36
18 -102 47 -146 65 -44 17 -127 54 -185 83 -105 52 -105 52 -70 59 19 4 143 5
274 2 235 -5 241 -5 310 -33z m996 -3 c47 -11 110 -28 140 -38 30 -10 114 -31
185 -46 146 -32 148 -29 -45 -58 l-105 -16 -130 41 c-120 38 -282 89 -347 109
-54 17 -54 25 2 30 87 9 208 0 300 -22z m1570 -96 c0 -20 -170 -142 -199 -142
-10 0 -39 7 -65 16 -26 9 -58 14 -71 12 -18 -4 -29 1 -40 18 -15 24 -40 32
-47 16 -1 -5 -22 -12 -44 -15 -54 -9 -86 14 -77 56 6 31 -6 29 213 28 74 0
167 3 205 8 99 12 125 12 125 3z m5354 -54 c23 -11 43 -24 46 -27 3 -4 25 -15
50 -26 25 -10 59 -29 77 -42 17 -13 36 -23 41 -23 19 0 32 -64 32 -158 0 -83
-3 -100 -26 -141 -33 -58 -102 -117 -156 -132 -23 -6 -64 -8 -92 -5 -28 4 -80
9 -115 12 -36 3 -77 14 -95 25 -36 22 -50 24 -41 7 4 -7 0 -5 -7 4 -8 9 -21
18 -28 20 -8 2 -25 13 -37 26 -13 12 -30 22 -38 22 -7 0 -17 9 -20 20 -4 11
-11 18 -16 15 -5 -4 -9 4 -9 15 0 13 -8 24 -20 27 -59 15 -16 111 105 236 58
61 93 89 111 91 15 2 32 10 38 18 9 12 75 29 140 35 10 1 37 -7 60 -19z
m-6669 -53 c50 -14 176 -46 280 -71 105 -26 194 -50 199 -54 4 -5 -16 -11 -45
-14 -30 -4 -137 -16 -239 -27 -102 -11 -202 -25 -222 -31 -26 -8 -41 -8 -50
-1 -17 14 -209 73 -383 118 -145 37 -175 50 -134 59 35 7 236 27 369 35 63 5
120 9 125 9 6 1 51 -9 100 -23z m3740 -45 c55 -16 157 -46 228 -66 70 -21 127
-40 127 -44 0 -10 -109 -60 -200 -92 -47 -17 -115 -45 -152 -64 l-66 -33 -194
44 c-106 25 -253 60 -327 78 -155 38 -156 33 9 107 91 40 98 42 165 37 55 -5
89 -1 160 17 50 13 101 28 115 34 33 14 22 16 135 -18z m-5040 -30 c33 -13 69
-29 80 -35 18 -12 50 -23 228 -82 38 -12 97 -53 97 -66 0 -1 -84 -2 -187 -2
-192 0 -283 -13 -283 -40 0 -7 -18 -17 -39 -23 -47 -11 -62 -3 -131 71 -31 34
-70 61 -127 88 -45 21 -88 39 -95 39 -24 0 -98 35 -98 47 0 20 120 32 310 29
166 -2 191 -5 245 -26z m2561 -10 c60 -12 181 -36 270 -55 88 -19 164 -35 167
-35 4 0 7 -3 7 -8 0 -16 -494 -106 -518 -94 -9 5 -44 14 -77 21 -33 7 -130 30
-215 51 -85 21 -184 44 -219 51 -38 7 -58 15 -50 20 13 6 190 36 349 58 106
14 172 12 286 -9z"/>
<path d="M5390 6443 c-33 -6 -60 -31 -60 -56 0 -17 5 -19 39 -13 26 4 42 2 50
-7 6 -8 8 -16 5 -19 -12 -13 48 -14 71 -2 32 16 49 10 64 -22 8 -18 17 -24 29
-20 19 6 82 -9 91 -21 9 -12 142 -3 135 9 -4 6 -1 14 6 18 9 6 7 13 -9 29 -22
22 -51 28 -51 11 0 -11 -72 -32 -80 -22 -3 4 -22 16 -42 26 -21 11 -38 23 -38
28 0 4 -7 8 -16 8 -8 0 -42 14 -76 30 -59 30 -69 32 -118 23z"/>
<path d="M5160 6392 c0 -4 7 -20 15 -35 14 -27 13 -30 -10 -53 -26 -26 -40
-30 -50 -14 -9 15 -25 12 -25 -5 0 -11 13 -15 54 -15 38 0 60 -6 79 -20 30
-24 57 -26 57 -5 0 10 10 15 34 15 30 0 34 2 28 23 -3 12 -10 25 -16 29 -6 4
-1 11 13 16 23 8 23 9 -13 26 -20 9 -41 14 -48 10 -6 -4 -16 0 -23 9 -11 16
-95 32 -95 19z"/>
</g>
</svg>
